<?xml version="1.0" encoding="UTF-8" standalone="no"?>
<!-- Created with Inkscape (http://www.inkscape.org/) -->

<svg
   xmlns:dc="http://purl.org/dc/elements/1.1/"
   xmlns:cc="http://creativecommons.org/ns#"
   xmlns:rdf="http://www.w3.org/1999/02/22-rdf-syntax-ns#"
   xmlns:svg="http://www.w3.org/2000/svg"
   xmlns="http://www.w3.org/2000/svg"
   xmlns:sodipodi="http://sodipodi.sourceforge.net/DTD/sodipodi-0.dtd"
   xmlns:inkscape="http://www.inkscape.org/namespaces/inkscape"
   width="99.999992mm"
   height="100mm"
   viewBox="0 0 99.999993 99.999999"
   version="1.1"
   id="svg1225"
   sodipodi:docname="email.svg"
   inkscape:version="0.92.2 2405546, 2018-03-11">
  <defs
     id="defs1219" />
  <sodipodi:namedview
     id="base"
     pagecolor="#ffffff"
     bordercolor="#666666"
     borderopacity="1.0"
     inkscape:pageopacity="0.0"
     inkscape:pageshadow="2"
     inkscape:zoom="0.98994949"
     inkscape:cx="-8.3719277"
     inkscape:cy="128.61716"
     inkscape:document-units="mm"
     inkscape:current-layer="layer1"
     showgrid="false"
     inkscape:window-width="1600"
     inkscape:window-height="842"
     inkscape:window-x="0"
     inkscape:window-y="32"
     inkscape:window-maximized="1" />
  <metadata
     id="metadata1222">
    <rdf:RDF>
      <cc:Work
         rdf:about="">
        <dc:format>image/svg+xml</dc:format>
        <dc:type
           rdf:resource="http://purl.org/dc/dcmitype/StillImage" />
        <dc:title></dc:title>
      </cc:Work>
    </rdf:RDF>
  </metadata>
  <g
     inkscape:label="Layer 1"
     inkscape:groupmode="layer"
     id="layer1"
     transform="translate(-39.501239,-92.122394)">
    <path
       inkscape:connector-curvature="0"
       style="fill:#cccccc;stroke-width:1.78593755"
       d="m 59.656931,108.56928 c -1.964539,0 -3.571875,1.60735 -3.571875,3.57188 v 58.40005 c 0,1.96452 1.607336,3.57188 3.571875,3.57188 h 58.578339 c 1.96452,0 3.57188,-1.60736 3.57188,-3.57188 l -0.17829,-58.40005 c 0,-1.96453 -1.60733,-3.57188 -3.57187,-3.57188 z m 2.79001,15.90756 h 52.789549 c 0.0911,0 0.17666,0.0475 0.22686,0.11679 l -24.258473,20.01842 -1.016477,0.84077 c -0.0199,0.0133 -0.03991,0.0248 -0.05891,0.0372 l -0.08733,0.0558 c -0.321699,0.21254 -0.719037,0.32969 -1.121379,0.32969 h -0.01138 v -5.3e-4 c -0.480282,0 -0.936913,-0.15062 -1.256771,-0.41547 L 62.272263,124.54039 c 0.04839,-0.0398 0.109167,-0.0636 0.174667,-0.0636 z m -0.282154,2.83652 18.181836,14.98617 -18.181836,14.68747 z m 53.354883,0.0987 v 29.58218 L 97.356955,142.39926 Z m -33.433618,16.32149 4.164086,3.43441 c 0.722112,0.59126 1.668196,0.91674 2.666506,0.91674 0.99455,0 1.941946,-0.32786 2.665986,-0.9219 l 4.03283,-3.329 19.9037,15.9923 v 0.0476 c 0,0.15378 -0.12986,0.2837 -0.28164,0.2837 H 62.450558 c -0.154649,0 -0.285771,-0.12984 -0.285771,-0.28267 v -0.0512 z"
       id="Facebook_2_-3-7"
       inkscape:export-xdpi="96"
       inkscape:export-ydpi="96" />
  </g>
</svg>
