<?xml version="1.0" encoding="UTF-8" standalone="no"?>
<!-- Created with Inkscape (http://www.inkscape.org/) -->

<svg
   xmlns:dc="http://purl.org/dc/elements/1.1/"
   xmlns:cc="http://creativecommons.org/ns#"
   xmlns:rdf="http://www.w3.org/1999/02/22-rdf-syntax-ns#"
   xmlns:svg="http://www.w3.org/2000/svg"
   xmlns="http://www.w3.org/2000/svg"
   xmlns:sodipodi="http://sodipodi.sourceforge.net/DTD/sodipodi-0.dtd"
   xmlns:inkscape="http://www.inkscape.org/namespaces/inkscape"
   width="99.999992mm"
   height="100mm"
   viewBox="0 0 99.999993 99.999999"
   version="1.1"
   id="svg1225"
   inkscape:version="0.92.2 2405546, 2018-03-11"
   sodipodi:docname="facebook.svg">
  <defs
     id="defs1219" />
  <sodipodi:namedview
     id="base"
     pagecolor="#ffffff"
     bordercolor="#666666"
     borderopacity="1.0"
     inkscape:pageopacity="0.0"
     inkscape:pageshadow="2"
     inkscape:zoom="0.98994949"
     inkscape:cx="-8.3719277"
     inkscape:cy="128.61716"
     inkscape:document-units="mm"
     inkscape:current-layer="layer1"
     showgrid="false"
     inkscape:window-width="1600"
     inkscape:window-height="842"
     inkscape:window-x="0"
     inkscape:window-y="32"
     inkscape:window-maximized="1" />
  <metadata
     id="metadata1222">
    <rdf:RDF>
      <cc:Work
         rdf:about="">
        <dc:format>image/svg+xml</dc:format>
        <dc:type
           rdf:resource="http://purl.org/dc/dcmitype/StillImage" />
        <dc:title></dc:title>
      </cc:Work>
    </rdf:RDF>
  </metadata>
  <g
     inkscape:label="Layer 1"
     inkscape:groupmode="layer"
     id="layer1"
     transform="translate(-39.501239,-92.122394)">
    <path
       d="m 122.00991,172.83334 c 0,1.96452 -1.60734,3.57183 -3.57188,3.57183 h -16.78781 v -25.3603 h 8.5725 l 1.25016,-9.82266 h -9.82266 v -6.25077 c 0,-2.85748 0.71437,-4.822 4.82203,-4.822 h 5.17923 v -8.92971 c -0.89298,-0.17887 -3.92907,-0.35707 -7.67954,-0.35707 -7.500941,0 -12.680154,4.64346 -12.680154,13.03735 v 7.32234 h -8.5725 v 9.82267 h 8.5725 v 25.36029 H 59.859284 c -1.964534,0 -3.571878,-1.60731 -3.571878,-3.57183 v -58.4002 c 0,-1.96452 1.607344,-3.57183 3.571878,-3.57183 h 58.400156 c 1.96454,0 3.57188,1.60731 3.57188,3.57183 z"
       id="Facebook_2_"
       inkscape:connector-curvature="0"
       style="fill:#cccccc;stroke-width:1.78593755"
       sodipodi:nodetypes="cscccccssccsscccccsssssscc"
       inkscape:export-xdpi="96"
       inkscape:export-ydpi="96" />
  </g>
</svg>
