<?xml version="1.0" encoding="UTF-8" standalone="no"?>
<!-- Created with Inkscape (http://www.inkscape.org/) -->

<svg
   xmlns:dc="http://purl.org/dc/elements/1.1/"
   xmlns:cc="http://creativecommons.org/ns#"
   xmlns:rdf="http://www.w3.org/1999/02/22-rdf-syntax-ns#"
   xmlns:svg="http://www.w3.org/2000/svg"
   xmlns="http://www.w3.org/2000/svg"
   xmlns:sodipodi="http://sodipodi.sourceforge.net/DTD/sodipodi-0.dtd"
   xmlns:inkscape="http://www.inkscape.org/namespaces/inkscape"
   width="99.999992mm"
   height="100mm"
   viewBox="0 0 99.999993 99.999999"
   version="1.1"
   id="svg1225"
   sodipodi:docname="github.svg"
   inkscape:version="0.92.2 2405546, 2018-03-11">
  <defs
     id="defs1219" />
  <sodipodi:namedview
     id="base"
     pagecolor="#ffffff"
     bordercolor="#666666"
     borderopacity="1.0"
     inkscape:pageopacity="0.0"
     inkscape:pageshadow="2"
     inkscape:zoom="0.98994949"
     inkscape:cx="-8.3719277"
     inkscape:cy="128.61716"
     inkscape:document-units="mm"
     inkscape:current-layer="layer1"
     showgrid="false"
     inkscape:window-width="1600"
     inkscape:window-height="842"
     inkscape:window-x="0"
     inkscape:window-y="32"
     inkscape:window-maximized="1" />
  <metadata
     id="metadata1222">
    <rdf:RDF>
      <cc:Work
         rdf:about="">
        <dc:format>image/svg+xml</dc:format>
        <dc:type
           rdf:resource="http://purl.org/dc/dcmitype/StillImage" />
        <dc:title></dc:title>
      </cc:Work>
    </rdf:RDF>
  </metadata>
  <g
     inkscape:label="Layer 1"
     inkscape:groupmode="layer"
     id="layer1"
     transform="translate(-39.501239,-92.122394)">
    <path
       style="fill:#cccccc;stroke-width:1.78593743"
       d="m 60.19147,108.56928 c -1.96454,0 -3.571875,1.60735 -3.571875,3.57187 v 58.40006 c 0,1.96448 1.607335,3.57187 3.571875,3.57187 6.934308,0 13.806247,0 20.602874,0 5.84255,0 11.629448,0 17.352476,0 6.97414,0 13.85342,0 20.62299,0 1.96452,0 3.57188,-1.60737 3.57188,-3.57187 l -0.17829,-58.40006 c 0,-1.96452 -1.60733,-3.57187 -3.57187,-3.57187 z m 45.81839,14.33297 c 0.24463,0.0125 0.46717,0.0509 0.66715,0.11524 1.28445,3.22676 1.39913,6.13891 0.34209,8.73693 2.25569,2.42731 3.38378,5.36882 3.38378,8.82375 0,2.427 -0.29366,4.57502 -0.87799,6.4456 -0.58507,1.87089 -1.34139,3.36895 -2.26911,4.4974 -0.92877,1.12829 -2.0854,2.07792 -3.47007,2.84841 -1.38497,0.7711 -2.72725,1.32776 -4.026112,1.67069 -1.299461,0.34295 -2.762509,0.60074 -4.389914,0.77205 1.484286,1.28445 2.22622,3.31164 2.22622,6.08129 v 9.03666 c 0,0.51335 0.193572,1.84031 0.550916,2.18281 H 80.794344 c 0.371298,-0.34234 0.481626,-1.6679 0.481626,-2.18127 0,-0.0857 -0.007,-0.85651 -0.02119,-2.31304 -0.01471,-1.45653 -0.0217,-2.72746 -0.0217,-3.81164 l -0.985469,0.17052 c -0.628129,0.11507 -1.420445,0.16417 -2.377115,0.15039 -0.95622,-0.0135 -1.948783,-0.1139 -2.976562,-0.30025 -1.028229,-0.18468 -1.984333,-0.61259 -2.869592,-1.28363 -0.884812,-0.67103 -1.513343,-1.54961 -1.88464,-2.63395 l -0.427881,-0.98547 c -0.285486,-0.65619 -0.735245,-1.38538 -1.349272,-2.18437 -0.614027,-0.79976 -1.234806,-1.34181 -1.862935,-1.62729 l -0.299724,-0.21445 c -0.199825,-0.14269 -0.385599,-0.31504 -0.557071,-0.51469 -0.171322,-0.19968 -0.299329,-0.39934 -0.38499,-0.59947 -0.08581,-0.20026 -0.01484,-0.36465 0.21394,-0.4935 0.228778,-0.12887 0.642377,-0.19172 1.242302,-0.19172 l 0.856278,0.12816 c 0.571121,0.11447 1.277629,0.45641 2.120284,1.02783 0.842205,0.57098 1.534258,1.31342 2.076875,2.22674 0.657083,1.17104 1.448652,2.06332 2.377118,2.67737 0.927716,0.61402 1.863397,0.92035 2.805512,0.92035 0.942117,0 1.755611,-0.0713 2.441196,-0.21341 0.684835,-0.14282 1.327605,-0.35753 1.92753,-0.64286 0.256984,-1.91394 0.95627,-3.38436 2.098063,-4.41214 -1.627404,-0.17102 -3.090301,-0.42852 -4.389913,-0.77102 -1.298861,-0.34293 -2.64092,-0.89951 -4.025593,-1.67121 -1.385425,-0.77065 -2.534905,-1.72742 -3.448369,-2.86907 -0.913614,-1.14224 -1.663519,-2.64182 -2.248442,-4.4974 -0.585225,-1.85633 -0.877985,-3.99794 -0.877985,-6.42493 0,-3.45569 1.128458,-6.39645 3.384291,-8.82376 -1.056733,-2.59802 -0.956836,-5.51032 0.299723,-8.73693 0.828103,-0.25728 2.056093,-0.0645 3.683494,0.57774 1.627704,0.64253 2.819014,1.19315 3.576011,1.64951 0.756994,0.45621 1.363604,0.84298 1.820561,1.15652 2.65608,-0.74215 5.397135,-1.11363 8.223787,-1.11363 2.826655,0 5.568587,0.37148 8.224821,1.11363 l 1.627291,-1.02784 c 1.112986,-0.68559 2.427326,-1.31352 3.939806,-1.88464 1.13505,-0.42812 2.06958,-0.62358 2.80345,-0.58601 z"
       id="Facebook_2_-3-6"
       inkscape:connector-curvature="0"
       sodipodi:nodetypes="ssscsscccsscccscccccssccscccccccccccccccccccscccccccscccccscccc"
       inkscape:export-xdpi="96"
       inkscape:export-ydpi="96" />
  </g>
</svg>
