<?xml version="1.0" encoding="UTF-8" standalone="no"?>
<!-- Created with Inkscape (http://www.inkscape.org/) -->

<svg
   xmlns:dc="http://purl.org/dc/elements/1.1/"
   xmlns:cc="http://creativecommons.org/ns#"
   xmlns:rdf="http://www.w3.org/1999/02/22-rdf-syntax-ns#"
   xmlns:svg="http://www.w3.org/2000/svg"
   xmlns="http://www.w3.org/2000/svg"
   xmlns:sodipodi="http://sodipodi.sourceforge.net/DTD/sodipodi-0.dtd"
   xmlns:inkscape="http://www.inkscape.org/namespaces/inkscape"
   width="99.999992mm"
   height="100mm"
   viewBox="0 0 99.999993 99.999999"
   version="1.1"
   id="svg1225"
   sodipodi:docname="linkedin.svg"
   inkscape:version="0.92.2 2405546, 2018-03-11">
  <defs
     id="defs1219" />
  <sodipodi:namedview
     id="base"
     pagecolor="#ffffff"
     bordercolor="#666666"
     borderopacity="1.0"
     inkscape:pageopacity="0.0"
     inkscape:pageshadow="2"
     inkscape:zoom="0.98994949"
     inkscape:cx="-8.3719277"
     inkscape:cy="128.61716"
     inkscape:document-units="mm"
     inkscape:current-layer="layer1"
     showgrid="false"
     inkscape:window-width="1600"
     inkscape:window-height="842"
     inkscape:window-x="0"
     inkscape:window-y="32"
     inkscape:window-maximized="1" />
  <metadata
     id="metadata1222">
    <rdf:RDF>
      <cc:Work
         rdf:about="">
        <dc:format>image/svg+xml</dc:format>
        <dc:type
           rdf:resource="http://purl.org/dc/dcmitype/StillImage" />
        <dc:title></dc:title>
      </cc:Work>
    </rdf:RDF>
  </metadata>
  <g
     inkscape:label="Layer 1"
     inkscape:groupmode="layer"
     id="layer1"
     transform="translate(-39.501239,-92.122394)">
    <path
       style="fill:#cccccc;stroke-width:1.78593743"
       d="m 59.389332,108.30202 c -1.9645,0 -3.5718,1.60735 -3.5718,3.57187 v 58.40057 c 0,1.96451 1.6073,3.57135 3.5718,3.57135 h 58.578898 c 1.9645,0 3.5719,-1.60736 3.5719,-3.57188 l -0.1783,-58.40004 c 0,-1.96452 -1.6074,-3.57187 -3.5719,-3.57187 z m 10.8629,11.27217 c 3.5153,0 5.5982,2.21292 5.7284,5.0772 0,2.99448 -2.2131,5.20795 -5.7284,5.20795 h -0.1302 c -3.3851,1e-5 -5.5986,-2.21343 -5.5986,-5.07772 0,-2.99448 2.2136,-5.20743 5.7288,-5.20743 z m 30.465398,13.67048 c 6.6399,0 11.8478,4.29643 11.978,13.54026 v 16.40416 h -10.6758 v -15.36288 c 0,-4.03604 -1.6927,-6.77013 -5.338199,-6.77013 -2.864299,0 -4.295999,1.82305 -5.077198,3.64577 -0.2604,0.65099 -0.2604,1.56186 -0.2604,2.47324 v 16.014 H 80.797832 c 0,0 0.1302,-27.21026 0,-29.68397 h 10.546201 v 4.68653 c 0.650899,-2.08312 4.0356,-4.94698 9.373597,-4.94698 z m -34.891998,0.39067 h 9.3741 v 29.68398 h -9.3741 z"
       id="Facebook_2_-3"
       inkscape:export-xdpi="96"
       inkscape:export-ydpi="96"
       inkscape:connector-curvature="0" />
  </g>
</svg>
